<svg width="17" height="16" viewBox="0 0 17 16" fill="none" xmlns="http://www.w3.org/2000/svg">
<path d="M3.178 11.8413C3.2818 11.9455 3.36133 12.0713 3.41094 12.2097C3.46055 12.3482 3.47901 12.4959 3.465 12.6423C3.39472 13.3198 3.26148 13.9894 3.067 14.6423C4.462 14.3193 5.314 13.9453 5.701 13.7493C5.9205 13.6381 6.17329 13.6117 6.411 13.6753C7.09243 13.8569 7.79477 13.9484 8.5 13.9473C12.496 13.9473 15.5 11.1403 15.5 7.94727C15.5 4.75527 12.496 1.94727 8.5 1.94727C4.504 1.94727 1.5 4.75527 1.5 7.94727C1.5 9.41527 2.117 10.7773 3.178 11.8413ZM2.685 15.7463C2.44807 15.7932 2.21037 15.8362 1.972 15.8753C1.772 15.9073 1.62 15.6993 1.699 15.5133C1.78779 15.3039 1.86918 15.0914 1.943 14.8763L1.946 14.8663C2.194 14.1463 2.396 13.3183 2.47 12.5473C1.243 11.3173 0.5 9.70727 0.5 7.94727C0.5 4.08127 4.082 0.947266 8.5 0.947266C12.918 0.947266 16.5 4.08127 16.5 7.94727C16.5 11.8133 12.918 14.9473 8.5 14.9473C7.70765 14.9483 6.91859 14.8455 6.153 14.6413C5.633 14.9043 4.514 15.3833 2.685 15.7463Z" fill="#223463"/>
<path d="M4.5 5.44727C4.5 5.31466 4.55268 5.18748 4.64645 5.09371C4.74021 4.99994 4.86739 4.94727 5 4.94727H12C12.1326 4.94727 12.2598 4.99994 12.3536 5.09371C12.4473 5.18748 12.5 5.31466 12.5 5.44727C12.5 5.57987 12.4473 5.70705 12.3536 5.80082C12.2598 5.89459 12.1326 5.94727 12 5.94727H5C4.86739 5.94727 4.74021 5.89459 4.64645 5.80082C4.55268 5.70705 4.5 5.57987 4.5 5.44727ZM4.5 7.94727C4.5 7.81466 4.55268 7.68748 4.64645 7.59371C4.74021 7.49994 4.86739 7.44727 5 7.44727H12C12.1326 7.44727 12.2598 7.49994 12.3536 7.59371C12.4473 7.68748 12.5 7.81466 12.5 7.94727C12.5 8.07987 12.4473 8.20705 12.3536 8.30082C12.2598 8.39459 12.1326 8.44727 12 8.44727H5C4.86739 8.44727 4.74021 8.39459 4.64645 8.30082C4.55268 8.20705 4.5 8.07987 4.5 7.94727ZM4.5 10.4473C4.5 10.3147 4.55268 10.1875 4.64645 10.0937C4.74021 9.99994 4.86739 9.94727 5 9.94727H9C9.13261 9.94727 9.25979 9.99994 9.35355 10.0937C9.44732 10.1875 9.5 10.3147 9.5 10.4473C9.5 10.5799 9.44732 10.7071 9.35355 10.8008C9.25979 10.8946 9.13261 10.9473 9 10.9473H5C4.86739 10.9473 4.74021 10.8946 4.64645 10.8008C4.55268 10.7071 4.5 10.5799 4.5 10.4473Z" fill="#223463"/>
</svg>
