<svg width="15" height="12" viewBox="0 0 15 12" fill="none" xmlns="http://www.w3.org/2000/svg">
<path d="M5.99487 0.453125L5.60425 0.5C5.60425 0.5 3.85229 0.691406 2.573 1.71875H2.55737L2.54175 1.73438C2.25464 1.99805 2.12964 2.32227 1.93237 2.79688C1.73511 3.27148 1.52417 3.87695 1.33862 4.54688C0.96753 5.88867 0.666748 7.51367 0.666748 9V9.125L0.729248 9.25C1.19214 10.0625 2.0144 10.5801 2.77612 10.9375C3.53784 11.2949 4.19604 11.4844 4.65112 11.5L4.948 11.5156L5.10425 11.25L5.65112 10.2812C6.2312 10.4121 6.89917 10.5 7.66675 10.5C8.43433 10.5 9.10229 10.4121 9.68237 10.2812L10.2292 11.25L10.3855 11.5156L10.6824 11.5C11.1375 11.4844 11.7957 11.2949 12.5574 10.9375C13.3191 10.5801 14.1414 10.0625 14.6042 9.25L14.6667 9.125V9C14.6667 7.51367 14.366 5.88867 13.9949 4.54688C13.8093 3.87695 13.5984 3.27148 13.4011 2.79688C13.2039 2.32227 13.0789 1.99805 12.7917 1.73438L12.7761 1.71875H12.7605C11.4812 0.691406 9.72925 0.5 9.72925 0.5L9.33862 0.453125L9.198 0.8125C9.198 0.8125 9.05347 1.17773 8.96362 1.59375C8.39722 1.51758 7.93433 1.5 7.66675 1.5C7.39917 1.5 6.93628 1.51758 6.36987 1.59375C6.28003 1.17773 6.1355 0.8125 6.1355 0.8125L5.99487 0.453125ZM5.30737 1.59375C5.32886 1.66406 5.35034 1.72461 5.36987 1.78125C4.72339 1.94141 4.03394 2.18555 3.40112 2.57812L3.93237 3.42188C5.22925 2.61719 7.09253 2.5 7.66675 2.5C8.24097 2.5 10.1042 2.61719 11.4011 3.42188L11.9324 2.57812C11.2996 2.18555 10.6101 1.94141 9.96362 1.78125C9.98315 1.72461 10.0046 1.66406 10.0261 1.59375C10.4929 1.6875 11.3835 1.90234 12.1199 2.48438C12.116 2.48633 12.3074 2.77539 12.4792 3.1875C12.655 3.61133 12.8503 4.17578 13.0261 4.8125C13.364 6.0332 13.6296 7.51953 13.6511 8.82812C13.3367 9.30859 12.7527 9.74219 12.1355 10.0312C11.5964 10.2832 11.1707 10.375 10.9167 10.4219L10.6667 10C10.8152 9.94531 10.9617 9.88477 11.0886 9.82812C11.8582 9.49023 12.2761 9.125 12.2761 9.125L11.6199 8.375C11.6199 8.375 11.3386 8.63281 10.6824 8.92188C10.0261 9.21094 9.02417 9.5 7.66675 9.5C6.30933 9.5 5.30737 9.21094 4.65112 8.92188C3.99487 8.63281 3.71362 8.375 3.71362 8.375L3.05737 9.125C3.05737 9.125 3.47534 9.49023 4.24487 9.82812C4.37183 9.88477 4.51831 9.94531 4.66675 10L4.41675 10.4219C4.16284 10.375 3.73706 10.2832 3.198 10.0312C2.58081 9.74219 1.99683 9.30859 1.68237 8.82812C1.70386 7.51953 1.96948 6.0332 2.30737 4.8125C2.48315 4.17578 2.67847 3.61133 2.85425 3.1875C3.02612 2.77539 3.21753 2.48633 3.21362 2.48438C3.94995 1.90234 4.84058 1.6875 5.30737 1.59375ZM5.91675 5C5.53003 5 5.18823 5.2207 4.97925 5.5C4.77026 5.7793 4.66675 6.12305 4.66675 6.5C4.66675 6.87695 4.77026 7.2207 4.97925 7.5C5.18823 7.7793 5.53003 8 5.91675 8C6.30347 8 6.64526 7.7793 6.85425 7.5C7.06323 7.2207 7.16675 6.87695 7.16675 6.5C7.16675 6.12305 7.06323 5.7793 6.85425 5.5C6.64526 5.2207 6.30347 5 5.91675 5ZM9.41675 5C9.03003 5 8.68823 5.2207 8.47925 5.5C8.27026 5.7793 8.16675 6.12305 8.16675 6.5C8.16675 6.87695 8.27026 7.2207 8.47925 7.5C8.68823 7.7793 9.03003 8 9.41675 8C9.80347 8 10.1453 7.7793 10.3542 7.5C10.5632 7.2207 10.6667 6.87695 10.6667 6.5C10.6667 6.12305 10.5632 5.7793 10.3542 5.5C10.1453 5.2207 9.80347 5 9.41675 5ZM5.91675 6C5.94409 6 5.97925 6.00977 6.04175 6.09375C6.10425 6.17773 6.16675 6.32422 6.16675 6.5C6.16675 6.67578 6.10425 6.82227 6.04175 6.90625C5.97925 6.99023 5.94409 7 5.91675 7C5.8894 7 5.85425 6.99023 5.79175 6.90625C5.72925 6.82227 5.66675 6.67578 5.66675 6.5C5.66675 6.32422 5.72925 6.17773 5.79175 6.09375C5.85425 6.00977 5.8894 6 5.91675 6ZM9.41675 6C9.44409 6 9.47925 6.00977 9.54175 6.09375C9.60425 6.17773 9.66675 6.32422 9.66675 6.5C9.66675 6.67578 9.60425 6.82227 9.54175 6.90625C9.47925 6.99023 9.44409 7 9.41675 7C9.3894 7 9.35425 6.99023 9.29175 6.90625C9.22925 6.82227 9.16675 6.67578 9.16675 6.5C9.16675 6.32422 9.22925 6.17773 9.29175 6.09375C9.35425 6.00977 9.3894 6 9.41675 6Z" fill="#292F36"/>
</svg>
