<svg width="14" height="14" viewBox="0 0 14 14" fill="none" xmlns="http://www.w3.org/2000/svg">
<path d="M6.66681 0.497559C5.08379 0.497624 3.55245 1.06097 2.34678 2.08679C1.14112 3.11261 0.339808 4.53397 0.0862291 6.09655C-0.167349 7.65912 0.143352 9.26094 0.96274 10.6154C1.78213 11.9698 3.05673 12.9885 4.55849 13.4892C4.89182 13.5476 5.01682 13.3476 5.01682 13.1726C5.01682 13.0142 5.00848 12.4892 5.00848 11.9309C3.33347 12.2392 2.90014 11.5226 2.76681 11.1476C2.61886 10.7829 2.38432 10.4597 2.08347 10.2059C1.85014 10.0809 1.51681 9.77256 2.07513 9.76424C2.28833 9.78737 2.4928 9.86156 2.67123 9.9805C2.84966 10.0995 2.99678 10.2597 3.10014 10.4476C3.19132 10.6114 3.31393 10.7555 3.46093 10.8719C3.60794 10.9882 3.77646 11.0744 3.95683 11.1255C4.1372 11.1766 4.32588 11.1916 4.51206 11.1696C4.69824 11.1477 4.87825 11.0892 5.04179 10.9976C5.07065 10.6586 5.2217 10.3418 5.46681 10.1059C3.98347 9.93924 2.43347 9.36422 2.43347 6.81424C2.42411 6.15168 2.6686 5.51063 3.11681 5.02258C2.91299 4.44672 2.93684 3.81477 3.18347 3.25591C3.18347 3.25591 3.74179 3.0809 5.01681 3.93924C6.10767 3.63923 7.25928 3.63923 8.35014 3.93924C9.62513 3.07258 10.1835 3.25591 10.1835 3.25591C10.4301 3.81476 10.454 4.44673 10.2501 5.02258C10.6997 5.50979 10.9444 6.1514 10.9335 6.81424C10.9335 9.37256 9.37513 9.93924 7.89181 10.1059C8.05091 10.2672 8.17344 10.4608 8.25109 10.6736C8.32873 10.8864 8.35967 11.1134 8.34181 11.3392C8.34181 12.2309 8.33347 12.9476 8.33347 13.1726C8.33347 13.3476 8.45847 13.5559 8.7918 13.4892C10.2909 12.9845 11.5619 11.9634 12.3777 10.6083C13.1936 9.25311 13.5014 7.65211 13.2461 6.09105C12.9907 4.52999 12.1889 3.11047 10.9838 2.0859C9.77865 1.06133 8.24861 0.498382 6.66681 0.497559Z" fill="#292F36"/>
</svg>
