<svg width="15" height="16" viewBox="0 0 15 16" fill="none" xmlns="http://www.w3.org/2000/svg">
<path fill-rule="evenodd" clip-rule="evenodd" d="M6.16028 5.01225C6.78262 4.68933 7.49092 4.57087 8.18446 4.67371C8.8919 4.77862 9.54684 5.10826 10.0525 5.61397C10.5582 6.11967 10.8879 6.77461 10.9928 7.48205C11.0956 8.17558 10.9772 8.88389 10.6543 9.50622C10.3313 10.1286 9.82042 10.6332 9.19415 10.9484C8.56789 11.2637 7.85817 11.3734 7.16595 11.262C6.47373 11.1506 5.83426 10.8238 5.3385 10.328C4.84273 9.83224 4.51591 9.19277 4.40452 8.50056C4.29313 7.80834 4.40285 7.09862 4.71807 6.47236C5.03329 5.84609 5.53795 5.33516 6.16028 5.01225ZM7.98889 5.99262C7.57276 5.93092 7.14778 6.00199 6.77438 6.19574C6.40098 6.38949 6.09818 6.69605 5.90905 7.07181C5.71992 7.44757 5.65409 7.8734 5.72092 8.28873C5.78775 8.70406 5.98384 9.08774 6.2813 9.3852C6.57877 9.68266 6.96245 9.87876 7.37778 9.94559C7.79311 10.0124 8.21894 9.94659 8.5947 9.75746C8.97046 9.56833 9.27701 9.26553 9.47077 8.89213C9.66451 8.51873 9.73559 8.09375 9.67389 7.67762C9.61094 7.25316 9.41315 6.8602 9.10973 6.55678C8.80631 6.25336 8.41335 6.05557 7.98889 5.99262Z" fill="#292F36"/>
<path d="M11.3334 3.6665C10.9652 3.6665 10.6667 3.96498 10.6667 4.33317C10.6667 4.70136 10.9652 4.99984 11.3334 4.99984H11.34C11.7082 4.99984 12.0067 4.70136 12.0067 4.33317C12.0067 3.96498 11.7082 3.6665 11.34 3.6665H11.3334Z" fill="#292F36"/>
<path fill-rule="evenodd" clip-rule="evenodd" d="M0.333374 4.6665C0.333374 2.45736 2.12423 0.666504 4.33337 0.666504H11C13.2092 0.666504 15 2.45736 15 4.6665V11.3332C15 13.5423 13.2092 15.3332 11 15.3332H4.33337C2.12423 15.3332 0.333374 13.5423 0.333374 11.3332V4.6665ZM4.33337 1.99984C2.86061 1.99984 1.66671 3.19374 1.66671 4.6665V11.3332C1.66671 12.8059 2.86061 13.9998 4.33337 13.9998H11C12.4728 13.9998 13.6667 12.8059 13.6667 11.3332V4.6665C13.6667 3.19374 12.4728 1.99984 11 1.99984H4.33337Z" fill="#292F36"/>
</svg>
