<svg width="15" height="15" viewBox="0 0 15 15" fill="none" xmlns="http://www.w3.org/2000/svg">
<path d="M6.31939 8.67553C7.17755 9.5645 8.2159 10.2508 9.36151 10.6863L10.9113 9.42696C10.9573 9.39464 11.0118 9.37734 11.0676 9.37734C11.1234 9.37734 11.1778 9.39464 11.2238 9.42696L14.1015 11.3202C14.2107 11.3873 14.3032 11.4794 14.3716 11.5892C14.44 11.6991 14.4825 11.8236 14.4956 11.9531C14.5088 12.0826 14.4923 12.2134 14.4474 12.3352C14.4025 12.4571 14.3305 12.5666 14.2371 12.6552L12.8887 14.0153C12.6956 14.2101 12.4583 14.3531 12.1979 14.4315C11.9375 14.5099 11.6622 14.5212 11.3964 14.4645C8.74577 13.9054 6.3026 12.5962 4.34613 10.6863C2.43309 8.75749 1.10927 6.30322 0.535266 3.62123C0.478562 3.35409 0.490397 3.07653 0.569624 2.81543C0.648851 2.55434 0.792783 2.31857 0.987472 2.13097L2.3852 0.754053C2.47169 0.663289 2.57718 0.593682 2.69375 0.550445C2.81032 0.507207 2.93496 0.49146 3.05833 0.504382C3.18171 0.517303 3.30062 0.558559 3.40617 0.62506C3.51172 0.69156 3.60117 0.781583 3.66782 0.888387L5.58353 3.78915C5.61657 3.8347 5.63441 3.88989 5.63441 3.94657C5.63441 4.00326 5.61657 4.05844 5.58353 4.10399L4.32147 5.65303C4.75952 6.79945 5.442 7.83192 6.31939 8.67553Z" fill="white"/>
</svg>
